<svg xmlns="http://www.w3.org/2000/svg" xmlns:xlink="http://www.w3.org/1999/xlink" width="500" zoomAndPan="magnify" viewBox="0 0 375 374.999991" height="500" preserveAspectRatio="xMidYMid meet" version="1.0"><defs><g/><clipPath id="8d36da20f7"><path d="M 161.117188 158 L 187.441406 158 L 187.441406 217.503906 L 161.117188 217.503906 Z M 161.117188 158 " clip-rule="nonzero"/></clipPath></defs><g fill="#403f46" fill-opacity="1"><g transform="translate(6.802075, 203.192225)"><g><path d="M 28.5625 0 L 2.75 0 L 2.859375 -0.640625 C 3.722656 -0.640625 4.414062 -0.675781 4.9375 -0.75 C 5.457031 -0.820312 5.929688 -1.019531 6.359375 -1.34375 C 6.796875 -1.664062 7.113281 -2.035156 7.3125 -2.453125 C 7.507812 -2.867188 7.679688 -3.5625 7.828125 -4.53125 C 8.003906 -5.789062 8.09375 -8.347656 8.09375 -12.203125 L 8.09375 -25.59375 C 8.09375 -30.945312 7.84375 -34.203125 7.34375 -35.359375 C 6.875 -36.367188 6.082031 -36.945312 4.96875 -37.09375 C 4.425781 -37.15625 3.722656 -37.1875 2.859375 -37.1875 L 2.75 -37.796875 L 17.28125 -37.796875 L 17.171875 -37.1875 C 15.367188 -37.1875 14.050781 -36.847656 13.21875 -36.171875 C 12.320312 -35.410156 11.875 -31.882812 11.875 -25.59375 L 11.875 -11.390625 C 11.875 -7.503906 12 -4.921875 12.25 -3.640625 C 12.5 -2.367188 13.09375 -1.515625 14.03125 -1.078125 C 23.320312 -1.078125 27.96875 -3.289062 27.96875 -7.71875 L 28.5625 -7.828125 Z M 28.5625 0 "/></g></g></g><g fill="#403f46" fill-opacity="1"><g transform="translate(36.712184, 203.192225)"><g><path d="M 2.15625 -12.765625 C 2.15625 -16.523438 3.234375 -19.679688 5.390625 -22.234375 C 7.554688 -24.796875 10.492188 -26.078125 14.203125 -26.078125 C 17.910156 -26.078125 20.894531 -24.796875 23.15625 -22.234375 C 25.425781 -19.679688 26.5625 -16.515625 26.5625 -12.734375 C 26.5625 -8.960938 25.472656 -5.804688 23.296875 -3.265625 C 21.117188 -0.722656 18.175781 0.546875 14.46875 0.546875 C 10.757812 0.546875 7.78125 -0.726562 5.53125 -3.28125 C 3.28125 -5.84375 2.15625 -9.003906 2.15625 -12.765625 Z M 8.390625 -4 C 9.816406 -1.695312 11.84375 -0.546875 14.46875 -0.546875 C 17.09375 -0.546875 19.078125 -1.675781 20.421875 -3.9375 C 21.773438 -6.207031 22.453125 -9.128906 22.453125 -12.703125 C 22.453125 -16.285156 21.734375 -19.226562 20.296875 -21.53125 C 18.859375 -23.84375 16.832031 -25 14.21875 -25 C 11.613281 -25 9.632812 -23.851562 8.28125 -21.5625 C 6.9375 -19.28125 6.265625 -16.359375 6.265625 -12.796875 C 6.265625 -9.234375 6.972656 -6.300781 8.390625 -4 Z M 8.390625 -4 "/></g></g></g><g fill="#403f46" fill-opacity="1"><g transform="translate(65.434525, 203.192225)"><g><path d="M 13.71875 0.546875 C 10.550781 0.546875 7.832031 -0.625 5.5625 -2.96875 C 3.289062 -5.3125 2.15625 -8.488281 2.15625 -12.5 C 2.15625 -16.507812 3.191406 -19.773438 5.265625 -22.296875 C 7.335938 -24.816406 10.28125 -26.078125 14.09375 -26.078125 C 16.46875 -26.078125 18.535156 -25.6875 20.296875 -24.90625 C 22.054688 -24.132812 22.9375 -23.066406 22.9375 -21.703125 C 22.9375 -20.472656 22.273438 -19.859375 20.953125 -19.859375 C 20.265625 -19.859375 19.695312 -20.128906 19.25 -20.671875 C 18.800781 -21.210938 18.457031 -21.796875 18.21875 -22.421875 C 17.988281 -23.054688 17.53125 -23.644531 16.84375 -24.1875 C 16.15625 -24.726562 15.253906 -25 14.140625 -25 C 11.546875 -25 9.582031 -23.914062 8.25 -21.75 C 6.925781 -19.59375 6.265625 -16.632812 6.265625 -12.875 C 6.265625 -9.113281 7.054688 -6.195312 8.640625 -4.125 C 10.222656 -2.0625 12.179688 -1.03125 14.515625 -1.03125 C 18.078125 -1.03125 20.617188 -2.46875 22.140625 -5.34375 L 22.9375 -4.90625 C 21.101562 -1.269531 18.03125 0.546875 13.71875 0.546875 Z M 13.71875 0.546875 "/></g></g></g><g fill="#403f46" fill-opacity="1"><g transform="translate(89.729744, 203.192225)"><g><path d="M 22.234375 -17.4375 L 22.234375 -11.984375 C 22.234375 -7.992188 22.359375 -5.375 22.609375 -4.125 C 22.867188 -2.882812 23.484375 -2.265625 24.453125 -2.265625 C 25.066406 -2.265625 25.878906 -2.515625 26.890625 -3.015625 L 27.15625 -2.484375 C 26.863281 -2.265625 26.484375 -2 26.015625 -1.6875 C 25.546875 -1.382812 24.59375 -0.984375 23.15625 -0.484375 C 21.71875 0.015625 20.332031 0.265625 19 0.265625 C 18.644531 -1.242188 18.46875 -3.65625 18.46875 -6.96875 C 17.675781 -4.726562 16.640625 -2.914062 15.359375 -1.53125 C 14.078125 -0.144531 12.300781 0.546875 10.03125 0.546875 C 7.769531 0.546875 5.984375 -0.0546875 4.671875 -1.265625 C 3.359375 -2.472656 2.703125 -4.117188 2.703125 -6.203125 C 2.703125 -12.003906 7.957031 -14.921875 18.46875 -14.953125 L 18.46875 -16.890625 C 18.46875 -19.484375 18.085938 -21.460938 17.328125 -22.828125 C 16.578125 -24.203125 15.175781 -24.890625 13.125 -24.890625 C 11.96875 -24.890625 11.03125 -24.597656 10.3125 -24.015625 C 9.59375 -23.441406 9.109375 -22.816406 8.859375 -22.140625 C 8.242188 -20.265625 7.332031 -19.328125 6.125 -19.328125 C 4.914062 -19.328125 4.3125 -20 4.3125 -21.34375 C 4.3125 -22.695312 5.210938 -23.820312 7.015625 -24.71875 C 8.816406 -25.625 10.992188 -26.078125 13.546875 -26.078125 C 16.109375 -26.078125 18.195312 -25.347656 19.8125 -23.890625 C 21.425781 -22.429688 22.234375 -20.28125 22.234375 -17.4375 Z M 6.796875 -6 C 6.796875 -4.59375 7.140625 -3.429688 7.828125 -2.515625 C 8.515625 -1.597656 9.601562 -1.140625 11.09375 -1.140625 C 12.582031 -1.140625 13.9375 -1.863281 15.15625 -3.3125 C 16.382812 -4.769531 17.222656 -6.390625 17.671875 -8.171875 C 18.128906 -9.953125 18.394531 -11.800781 18.46875 -13.71875 C 14.46875 -13.675781 11.519531 -12.9375 9.625 -11.5 C 7.738281 -10.0625 6.796875 -8.226562 6.796875 -6 Z M 6.796875 -6 "/></g></g></g><g fill="#403f46" fill-opacity="1"><g transform="translate(118.236138, 203.192225)"><g><path d="M 9.875 -39.734375 L 9.875 -9.390625 C 9.875 -5.398438 10.109375 -2.941406 10.578125 -2.015625 C 11.046875 -1.097656 12.34375 -0.640625 14.46875 -0.640625 L 14.578125 0 L 1.34375 0 L 1.453125 -0.640625 C 3.617188 -0.640625 4.929688 -1.085938 5.390625 -1.984375 C 5.859375 -2.890625 6.09375 -5.359375 6.09375 -9.390625 L 6.09375 -30.015625 C 6.09375 -34.003906 5.878906 -36.414062 5.453125 -37.25 C 5.304688 -37.5 5.035156 -37.75 4.640625 -38 C 4.242188 -38.257812 3.820312 -38.40625 3.375 -38.4375 C 2.925781 -38.46875 2.285156 -38.484375 1.453125 -38.484375 L 1.34375 -39.078125 C 4.050781 -39.515625 6.894531 -39.734375 9.875 -39.734375 Z M 9.875 -39.734375 "/></g></g></g><g fill="#403f46" fill-opacity="1"><g transform="translate(134.443717, 203.192225)"><g/></g></g><g fill="#403f46" fill-opacity="1"><g transform="translate(147.941065, 203.192225)"><g/></g></g><g fill="#403f46" fill-opacity="1"><g transform="translate(161.438414, 203.192225)"><g/></g></g><g fill="#403f46" fill-opacity="1"><g transform="translate(174.935763, 203.192225)"><g/></g></g><g fill="#403f46" fill-opacity="1"><g transform="translate(188.433111, 203.192225)"><g/></g></g><g fill="#403f46" fill-opacity="1"><g transform="translate(201.93046, 203.192225)"><g/></g></g><g fill="#403f46" fill-opacity="1"><g transform="translate(215.435816, 203.192225)"><g><path d="M 27.90625 -37.796875 L 27.90625 -30.015625 L 27.3125 -30.125 C 27.3125 -32.5 26.039062 -34.160156 23.5 -35.109375 C 20.96875 -36.066406 17.113281 -36.546875 11.9375 -36.546875 L 11.9375 -19.546875 C 14.019531 -19.617188 15.644531 -19.734375 16.8125 -19.890625 C 17.988281 -20.054688 18.878906 -20.398438 19.484375 -20.921875 C 20.097656 -21.441406 20.476562 -22.003906 20.625 -22.609375 C 20.769531 -23.222656 20.84375 -24.160156 20.84375 -25.421875 L 21.484375 -25.53125 L 21.484375 -12.421875 L 20.84375 -12.53125 C 20.84375 -14.175781 20.671875 -15.359375 20.328125 -16.078125 C 19.984375 -16.804688 19.191406 -17.347656 17.953125 -17.703125 C 16.710938 -18.066406 14.707031 -18.285156 11.9375 -18.359375 L 11.9375 -12.203125 C 11.9375 -7.085938 12.164062 -4.097656 12.625 -3.234375 C 12.84375 -2.765625 13.085938 -2.320312 13.359375 -1.90625 C 13.628906 -1.5 14.035156 -1.222656 14.578125 -1.078125 C 15.722656 -0.785156 17.125 -0.640625 18.78125 -0.640625 L 18.890625 0 L 2.703125 0 L 2.8125 -0.640625 C 4.601562 -0.640625 5.914062 -0.984375 6.75 -1.671875 C 7.644531 -2.429688 8.09375 -5.941406 8.09375 -12.203125 L 8.09375 -25.59375 C 8.09375 -29.4375 7.972656 -32.066406 7.734375 -33.484375 C 7.503906 -34.910156 7.175781 -35.804688 6.75 -36.171875 C 5.914062 -36.847656 4.601562 -37.1875 2.8125 -37.1875 L 2.703125 -37.796875 Z M 27.90625 -37.796875 "/></g></g></g><g fill="#403f46" fill-opacity="1"><g transform="translate(244.536077, 203.192225)"><g><path d="M 9.875 -39.734375 L 9.875 -9.390625 C 9.875 -5.398438 10.109375 -2.941406 10.578125 -2.015625 C 11.046875 -1.097656 12.34375 -0.640625 14.46875 -0.640625 L 14.578125 0 L 1.34375 0 L 1.453125 -0.640625 C 3.617188 -0.640625 4.929688 -1.085938 5.390625 -1.984375 C 5.859375 -2.890625 6.09375 -5.359375 6.09375 -9.390625 L 6.09375 -30.015625 C 6.09375 -34.003906 5.878906 -36.414062 5.453125 -37.25 C 5.304688 -37.5 5.035156 -37.75 4.640625 -38 C 4.242188 -38.257812 3.820312 -38.40625 3.375 -38.4375 C 2.925781 -38.46875 2.285156 -38.484375 1.453125 -38.484375 L 1.34375 -39.078125 C 4.050781 -39.515625 6.894531 -39.734375 9.875 -39.734375 Z M 9.875 -39.734375 "/></g></g></g><g fill="#403f46" fill-opacity="1"><g transform="translate(260.73289, 203.192225)"><g><path d="M 2.15625 -12.765625 C 2.15625 -16.523438 3.234375 -19.679688 5.390625 -22.234375 C 7.554688 -24.796875 10.492188 -26.078125 14.203125 -26.078125 C 17.910156 -26.078125 20.894531 -24.796875 23.15625 -22.234375 C 25.425781 -19.679688 26.5625 -16.515625 26.5625 -12.734375 C 26.5625 -8.960938 25.472656 -5.804688 23.296875 -3.265625 C 21.117188 -0.722656 18.175781 0.546875 14.46875 0.546875 C 10.757812 0.546875 7.78125 -0.726562 5.53125 -3.28125 C 3.28125 -5.84375 2.15625 -9.003906 2.15625 -12.765625 Z M 8.390625 -4 C 9.816406 -1.695312 11.84375 -0.546875 14.46875 -0.546875 C 17.09375 -0.546875 19.078125 -1.675781 20.421875 -3.9375 C 21.773438 -6.207031 22.453125 -9.128906 22.453125 -12.703125 C 22.453125 -16.285156 21.734375 -19.226562 20.296875 -21.53125 C 18.859375 -23.84375 16.832031 -25 14.21875 -25 C 11.613281 -25 9.632812 -23.851562 8.28125 -21.5625 C 6.9375 -19.28125 6.265625 -16.359375 6.265625 -12.796875 C 6.265625 -9.234375 6.972656 -6.300781 8.390625 -4 Z M 8.390625 -4 "/></g></g></g><g fill="#403f46" fill-opacity="1"><g transform="translate(289.455231, 203.192225)"><g><path d="M 18.78125 -26.34375 C 19.6875 -26.34375 20.476562 -26.144531 21.15625 -25.75 C 21.84375 -25.351562 22.1875 -24.8125 22.1875 -24.125 C 22.1875 -23.445312 21.96875 -22.910156 21.53125 -22.515625 C 21.101562 -22.117188 20.617188 -21.921875 20.078125 -21.921875 C 19.535156 -21.921875 18.859375 -22.15625 18.046875 -22.625 C 17.242188 -23.09375 16.394531 -23.328125 15.5 -23.328125 C 14.09375 -23.328125 12.945312 -22.03125 12.0625 -19.4375 C 11.1875 -16.84375 10.75 -13.835938 10.75 -10.421875 C 10.75 -5.816406 10.976562 -3.023438 11.4375 -2.046875 C 11.582031 -1.722656 11.851562 -1.425781 12.25 -1.15625 C 12.644531 -0.882812 13.054688 -0.726562 13.484375 -0.6875 C 13.921875 -0.65625 14.535156 -0.640625 15.328125 -0.640625 L 15.4375 0 L 2.328125 0 L 2.421875 -0.640625 C 3.578125 -0.640625 4.414062 -0.703125 4.9375 -0.828125 C 5.457031 -0.960938 5.894531 -1.40625 6.25 -2.15625 C 6.613281 -2.914062 6.820312 -3.859375 6.875 -4.984375 C 6.9375 -6.117188 6.96875 -7.929688 6.96875 -10.421875 L 6.96875 -13.546875 C 6.96875 -18.546875 6.832031 -21.390625 6.5625 -22.078125 C 6.289062 -22.765625 6.046875 -23.304688 5.828125 -23.703125 C 5.609375 -24.097656 5.285156 -24.367188 4.859375 -24.515625 C 4.066406 -24.722656 3.023438 -24.828125 1.734375 -24.828125 L 1.625 -25.421875 C 4.675781 -25.859375 7.71875 -26.078125 10.75 -26.078125 L 10.75 -18.140625 C 11.144531 -20.691406 12.035156 -22.695312 13.421875 -24.15625 C 14.804688 -25.613281 16.59375 -26.34375 18.78125 -26.34375 Z M 18.78125 -26.34375 "/></g></g></g><g fill="#403f46" fill-opacity="1"><g transform="translate(311.644854, 203.192225)"><g><path d="M 6.640625 -32.546875 C 6.023438 -33.160156 5.71875 -33.878906 5.71875 -34.703125 C 5.71875 -35.535156 6.023438 -36.257812 6.640625 -36.875 C 7.253906 -37.488281 7.972656 -37.796875 8.796875 -37.796875 C 9.628906 -37.796875 10.347656 -37.488281 10.953125 -36.875 C 11.566406 -36.257812 11.875 -35.535156 11.875 -34.703125 C 11.875 -33.878906 11.566406 -33.160156 10.953125 -32.546875 C 10.347656 -31.941406 9.628906 -31.640625 8.796875 -31.640625 C 7.972656 -31.640625 7.253906 -31.941406 6.640625 -32.546875 Z M 10.84375 -26.078125 L 10.84375 -8.90625 C 10.84375 -5.125 11.066406 -2.800781 11.515625 -1.9375 C 11.972656 -1.070312 13.265625 -0.640625 15.390625 -0.640625 L 15.5 0 L 2.328125 0 L 2.421875 -0.640625 C 4.585938 -0.640625 5.90625 -1.082031 6.375 -1.96875 C 6.84375 -2.851562 7.078125 -5.203125 7.078125 -9.015625 L 7.078125 -12.796875 C 7.078125 -16.972656 6.957031 -19.734375 6.71875 -21.078125 C 6.488281 -22.429688 6.15625 -23.304688 5.71875 -23.703125 C 4.851562 -24.492188 3.523438 -24.890625 1.734375 -24.890625 L 1.625 -25.484375 C 4.75 -25.878906 7.820312 -26.078125 10.84375 -26.078125 Z M 10.84375 -26.078125 "/></g></g></g><g fill="#403f46" fill-opacity="1"><g transform="translate(328.75948, 203.192225)"><g><path d="M 3.890625 -8.046875 C 3.890625 -5.703125 4.519531 -3.945312 5.78125 -2.78125 C 7.039062 -1.613281 8.539062 -1.03125 10.28125 -1.03125 C 12.03125 -1.03125 13.441406 -1.425781 14.515625 -2.21875 C 15.597656 -3.007812 16.140625 -4.078125 16.140625 -5.421875 C 16.140625 -6.773438 15.679688 -7.882812 14.765625 -8.75 C 13.847656 -9.613281 12.738281 -10.3125 11.4375 -10.84375 C 10.144531 -11.382812 8.84375 -11.941406 7.53125 -12.515625 C 6.21875 -13.097656 5.101562 -13.945312 4.1875 -15.0625 C 3.269531 -16.175781 2.8125 -17.664062 2.8125 -19.53125 C 2.8125 -21.40625 3.644531 -22.960938 5.3125 -24.203125 C 6.988281 -25.453125 8.925781 -26.078125 11.125 -26.078125 C 14.25 -26.078125 16.695312 -25.570312 18.46875 -24.5625 C 18.46875 -22.90625 18.25 -20.601562 17.8125 -17.65625 L 17.171875 -17.8125 C 17.171875 -20.1875 16.628906 -21.910156 15.546875 -22.984375 C 14.460938 -24.066406 13.15625 -24.609375 11.625 -24.609375 C 10.101562 -24.609375 8.882812 -24.210938 7.96875 -23.421875 C 7.050781 -22.628906 6.59375 -21.554688 6.59375 -20.203125 C 6.59375 -18.859375 7.050781 -17.78125 7.96875 -16.96875 C 8.882812 -16.164062 9.988281 -15.492188 11.28125 -14.953125 C 12.570312 -14.410156 13.875 -13.84375 15.1875 -13.25 C 16.507812 -12.65625 17.628906 -11.804688 18.546875 -10.703125 C 19.460938 -9.609375 19.921875 -8.269531 19.921875 -6.6875 C 19.921875 -4.382812 19.019531 -2.601562 17.21875 -1.34375 C 15.414062 -0.0820312 13.046875 0.546875 10.109375 0.546875 C 7.179688 0.546875 4.710938 -0.226562 2.703125 -1.78125 C 2.703125 -3.582031 2.878906 -5.707031 3.234375 -8.15625 Z M 3.890625 -8.046875 "/></g></g></g><g fill="#403f46" fill-opacity="1"><g transform="translate(350.949102, 203.192225)"><g><path d="M 9.5 -25.53125 L 16.140625 -25.53125 L 16.140625 -24.34375 L 9.5 -24.34375 L 9.5 -3.78125 C 9.5 -3.019531 9.675781 -2.414062 10.03125 -1.96875 C 10.394531 -1.519531 10.863281 -1.296875 11.4375 -1.296875 C 12.738281 -1.296875 14.269531 -1.671875 16.03125 -2.421875 L 16.140625 -1.828125 C 13.617188 -0.242188 11.390625 0.546875 9.453125 0.546875 C 8.191406 0.546875 7.253906 0.238281 6.640625 -0.375 C 6.023438 -0.988281 5.71875 -2.050781 5.71875 -3.5625 L 5.71875 -24.34375 L 2.484375 -24.34375 L 2.484375 -25.53125 C 4.429688 -25.53125 5.789062 -26.078125 6.5625 -27.171875 C 7.332031 -28.273438 7.914062 -29.90625 8.3125 -32.0625 L 9.5 -32.171875 Z M 9.5 -25.53125 "/></g></g></g><g clip-path="url(#8d36da20f7)"><path fill="#b8b6c1" d="M 186.980469 188.035156 C 186.449219 185.65625 181.855469 193.128906 178.894531 197.707031 C 179.59375 193.582031 180.097656 189.507812 180.460938 185.78125 C 181.769531 183.769531 186.707031 175.945312 185.664062 173.972656 C 184.550781 171.871094 182.179688 179.839844 180.53125 185.058594 C 181.386719 175.925781 181.402344 169.039062 181.402344 168.898438 L 181.234375 168.898438 C 182.546875 168.8125 185.953125 168.046875 186.597656 162.355469 C 186.597656 162.355469 186.0625 161.152344 184.859375 163.019531 C 184.324219 163.855469 183.816406 164.949219 183.253906 165.984375 C 183.351562 165.566406 183.421875 165.191406 183.472656 164.945312 C 183.640625 164.101562 183.660156 163.242188 183.527344 162.394531 C 183.457031 161.925781 183.371094 160.558594 182.828125 160.359375 C 182.054688 160.078125 181.832031 161.285156 181.761719 161.785156 C 181.761719 161.800781 181.757812 161.8125 181.757812 161.828125 C 181.554688 163.351562 181.683594 165.398438 181.332031 167.015625 C 181.238281 165.085938 181.023438 161.941406 180.578125 159.539062 C 180.808594 159.386719 180.949219 159.121094 180.957031 158.84375 C 180.964844 158.621094 180.886719 158.394531 180.699219 158.230469 C 180.179688 157.773438 179.339844 158.15625 179.339844 158.84375 C 179.339844 159.246094 179.640625 159.585938 180.027344 159.652344 C 180.527344 162.34375 180.734375 166 180.804688 167.761719 C 179.839844 166.207031 180.144531 163.835938 179.875 161.828125 C 179.816406 161.371094 179.691406 160.410156 179.089844 160.324219 C 178.496094 160.238281 178.4375 160.9375 178.324219 161.355469 C 178.246094 161.65625 178.175781 161.960938 178.121094 162.269531 C 178.023438 162.804688 177.96875 163.34375 177.972656 163.886719 C 177.976562 164.269531 178.015625 164.652344 178.082031 165.023438 C 177.710938 164.300781 177.351562 163.597656 176.980469 163.019531 C 175.78125 161.152344 175.246094 162.355469 175.246094 162.355469 C 175.933594 168.429688 179.769531 168.894531 180.839844 168.90625 C 180.839844 169.125 180.824219 174.707031 180.199219 182.429688 C 178.554688 177.207031 176.210938 169.386719 175.109375 171.472656 C 174.101562 173.371094 178.644531 180.699219 180.148438 183.03125 C 179.640625 189.074219 178.761719 196.335938 177.238281 203.351562 C 177.015625 200.6875 176.152344 197.984375 175.078125 195.539062 C 175.527344 193.71875 176.835938 187.949219 175.542969 187.316406 C 174.148438 186.640625 174.601562 191.609375 174.867188 195.058594 C 172.945312 190.84375 170.488281 187.488281 169.820312 186.613281 C 170.996094 185.792969 173.269531 183.445312 171.175781 178.402344 C 171.175781 178.402344 170.125 177.609375 169.980469 179.828125 C 169.914062 180.816406 170.003906 182.019531 170.007812 183.195312 C 169.894531 182.785156 169.773438 182.425781 169.699219 182.179688 C 169.4375 181.363281 169.035156 180.605469 168.511719 179.925781 C 168.21875 179.546875 167.480469 178.394531 166.910156 178.484375 C 166.097656 178.617188 166.488281 179.777344 166.667969 180.25 C 166.675781 180.261719 166.679688 180.277344 166.683594 180.289062 C 167.25 181.71875 168.351562 183.445312 168.832031 185.035156 C 167.8125 183.390625 166.101562 180.742188 164.542969 178.859375 C 164.671875 178.613281 164.667969 178.3125 164.542969 178.066406 C 164.4375 177.867188 164.257812 177.710938 164.015625 177.65625 C 163.339844 177.507812 162.789062 178.25 163.125 178.855469 C 163.320312 179.203125 163.75 179.355469 164.117188 179.222656 C 165.863281 181.335938 167.816406 184.4375 168.734375 185.941406 C 167.132812 185.046875 166.246094 182.828125 165.042969 181.199219 C 164.769531 180.832031 164.191406 180.050781 163.625 180.265625 C 163.066406 180.476562 163.351562 181.121094 163.457031 181.539062 C 163.53125 181.84375 163.621094 182.144531 163.722656 182.4375 C 163.894531 182.953125 164.109375 183.453125 164.375 183.925781 C 164.566406 184.257812 164.78125 184.574219 165.023438 184.863281 C 164.347656 184.414062 163.691406 183.972656 163.089844 183.648438 C 161.132812 182.597656 161.246094 183.90625 161.246094 183.90625 C 164.824219 188.929688 168.433594 187.410156 169.339844 186.910156 C 170.113281 187.929688 174.363281 193.742188 176.046875 199.957031 C 172.363281 195.914062 166.769531 189.53125 166.636719 191.925781 C 166.519531 194.105469 173.910156 198.953125 176.152344 200.371094 C 176.605469 202.179688 176.835938 204.011719 176.6875 205.761719 C 175.726562 209.742188 174.542969 213.582031 173.082031 217 L 173.597656 217.222656 C 175.070312 213.765625 176.265625 209.890625 177.234375 205.875 L 177.242188 205.875 C 177.242188 205.863281 177.242188 205.851562 177.242188 205.839844 C 177.859375 203.28125 178.386719 200.667969 178.832031 198.070312 C 180.59375 196.503906 187.46875 190.222656 186.980469 188.035156 " fill-opacity="1" fill-rule="nonzero"/></g></svg>