<svg xmlns="http://www.w3.org/2000/svg" xmlns:xlink="http://www.w3.org/1999/xlink" width="163" zoomAndPan="magnify" viewBox="0 0 122.25 67.499998" height="90" preserveAspectRatio="xMidYMid meet" version="1.0"><defs><g/><clipPath id="75195615e2"><path d="M 0.078125 6.382812 L 25.953125 6.382812 L 25.953125 64.8125 L 0.078125 64.8125 Z M 0.078125 6.382812 " clip-rule="nonzero"/></clipPath></defs><g fill="#403f46" fill-opacity="1"><g transform="translate(30.269211, 38.06804)"><g><path d="M 11.765625 0 L 1.140625 0 L 1.171875 -0.265625 C 1.535156 -0.265625 1.820312 -0.28125 2.03125 -0.3125 C 2.25 -0.34375 2.445312 -0.421875 2.625 -0.546875 C 2.800781 -0.679688 2.929688 -0.832031 3.015625 -1 C 3.097656 -1.175781 3.164062 -1.46875 3.21875 -1.875 C 3.300781 -2.382812 3.34375 -3.4375 3.34375 -5.03125 L 3.34375 -10.546875 C 3.34375 -12.753906 3.238281 -14.097656 3.03125 -14.578125 C 2.832031 -14.992188 2.503906 -15.226562 2.046875 -15.28125 C 1.828125 -15.3125 1.535156 -15.328125 1.171875 -15.328125 L 1.140625 -15.578125 L 7.125 -15.578125 L 7.078125 -15.328125 C 6.335938 -15.328125 5.796875 -15.1875 5.453125 -14.90625 C 5.078125 -14.59375 4.890625 -13.140625 4.890625 -10.546875 L 4.890625 -4.6875 C 4.890625 -3.09375 4.941406 -2.03125 5.046875 -1.5 C 5.148438 -0.976562 5.394531 -0.625 5.78125 -0.4375 C 9.613281 -0.4375 11.53125 -1.351562 11.53125 -3.1875 L 11.765625 -3.21875 Z M 11.765625 0 "/></g></g></g><g fill="#403f46" fill-opacity="1"><g transform="translate(42.599015, 38.06804)"><g><path d="M 0.890625 -5.265625 C 0.890625 -6.816406 1.332031 -8.117188 2.21875 -9.171875 C 3.113281 -10.222656 4.320312 -10.75 5.84375 -10.75 C 7.375 -10.75 8.609375 -10.222656 9.546875 -9.171875 C 10.484375 -8.117188 10.953125 -6.8125 10.953125 -5.25 C 10.953125 -3.695312 10.5 -2.394531 9.59375 -1.34375 C 8.695312 -0.300781 7.484375 0.21875 5.953125 0.21875 C 4.429688 0.21875 3.207031 -0.304688 2.28125 -1.359375 C 1.351562 -2.410156 0.890625 -3.710938 0.890625 -5.265625 Z M 3.453125 -1.640625 C 4.046875 -0.691406 4.882812 -0.21875 5.96875 -0.21875 C 7.050781 -0.21875 7.867188 -0.6875 8.421875 -1.625 C 8.972656 -2.5625 9.25 -3.765625 9.25 -5.234375 C 9.25 -6.710938 8.953125 -7.925781 8.359375 -8.875 C 7.765625 -9.820312 6.929688 -10.296875 5.859375 -10.296875 C 4.785156 -10.296875 3.96875 -9.820312 3.40625 -8.875 C 2.851562 -7.9375 2.578125 -6.734375 2.578125 -5.265625 C 2.578125 -3.804688 2.867188 -2.597656 3.453125 -1.640625 Z M 3.453125 -1.640625 "/></g></g></g><g fill="#403f46" fill-opacity="1"><g transform="translate(54.439188, 38.06804)"><g><path d="M 5.65625 0.21875 C 4.34375 0.21875 3.21875 -0.257812 2.28125 -1.21875 C 1.351562 -2.1875 0.890625 -3.492188 0.890625 -5.140625 C 0.890625 -6.796875 1.316406 -8.144531 2.171875 -9.1875 C 3.023438 -10.226562 4.238281 -10.75 5.8125 -10.75 C 6.789062 -10.75 7.640625 -10.585938 8.359375 -10.265625 C 9.085938 -9.953125 9.453125 -9.507812 9.453125 -8.9375 C 9.453125 -8.4375 9.179688 -8.1875 8.640625 -8.1875 C 8.347656 -8.1875 8.109375 -8.296875 7.921875 -8.515625 C 7.742188 -8.742188 7.601562 -8.988281 7.5 -9.25 C 7.40625 -9.507812 7.21875 -9.75 6.9375 -9.96875 C 6.65625 -10.1875 6.285156 -10.296875 5.828125 -10.296875 C 4.765625 -10.296875 3.957031 -9.847656 3.40625 -8.953125 C 2.851562 -8.066406 2.578125 -6.847656 2.578125 -5.296875 C 2.578125 -3.753906 2.898438 -2.554688 3.546875 -1.703125 C 4.203125 -0.847656 5.015625 -0.421875 5.984375 -0.421875 C 7.453125 -0.421875 8.5 -1.015625 9.125 -2.203125 L 9.453125 -2.03125 C 8.703125 -0.53125 7.4375 0.21875 5.65625 0.21875 Z M 5.65625 0.21875 "/></g></g></g><g fill="#403f46" fill-opacity="1"><g transform="translate(64.454374, 38.06804)"><g><path d="M 9.171875 -7.1875 L 9.171875 -4.9375 C 9.171875 -3.289062 9.222656 -2.210938 9.328125 -1.703125 C 9.429688 -1.191406 9.679688 -0.9375 10.078125 -0.9375 C 10.328125 -0.9375 10.660156 -1.039062 11.078125 -1.25 L 11.1875 -1.03125 C 11.070312 -0.9375 10.914062 -0.828125 10.71875 -0.703125 C 10.53125 -0.578125 10.140625 -0.410156 9.546875 -0.203125 C 8.953125 0.00390625 8.378906 0.109375 7.828125 0.109375 C 7.679688 -0.515625 7.609375 -1.507812 7.609375 -2.875 C 7.285156 -1.945312 6.859375 -1.195312 6.328125 -0.625 C 5.804688 -0.0625 5.078125 0.21875 4.140625 0.21875 C 3.203125 0.21875 2.460938 -0.0234375 1.921875 -0.515625 C 1.378906 -1.015625 1.109375 -1.695312 1.109375 -2.5625 C 1.109375 -4.945312 3.273438 -6.144531 7.609375 -6.15625 L 7.609375 -6.96875 C 7.609375 -8.03125 7.453125 -8.84375 7.140625 -9.40625 C 6.828125 -9.96875 6.25 -10.25 5.40625 -10.25 C 4.925781 -10.25 4.539062 -10.128906 4.25 -9.890625 C 3.957031 -9.660156 3.757812 -9.40625 3.65625 -9.125 C 3.394531 -8.351562 3.015625 -7.96875 2.515625 -7.96875 C 2.023438 -7.96875 1.78125 -8.242188 1.78125 -8.796875 C 1.78125 -9.359375 2.148438 -9.820312 2.890625 -10.1875 C 3.628906 -10.5625 4.523438 -10.75 5.578125 -10.75 C 6.640625 -10.75 7.503906 -10.445312 8.171875 -9.84375 C 8.835938 -9.238281 9.171875 -8.351562 9.171875 -7.1875 Z M 2.796875 -2.46875 C 2.796875 -1.894531 2.9375 -1.414062 3.21875 -1.03125 C 3.507812 -0.65625 3.960938 -0.46875 4.578125 -0.46875 C 5.191406 -0.46875 5.75 -0.765625 6.25 -1.359375 C 6.757812 -1.960938 7.101562 -2.628906 7.28125 -3.359375 C 7.46875 -4.097656 7.578125 -4.863281 7.609375 -5.65625 C 5.960938 -5.632812 4.75 -5.328125 3.96875 -4.734375 C 3.1875 -4.140625 2.796875 -3.382812 2.796875 -2.46875 Z M 2.796875 -2.46875 "/></g></g></g><g fill="#403f46" fill-opacity="1"><g transform="translate(76.205527, 38.06804)"><g><path d="M 4.078125 -16.375 L 4.078125 -3.875 C 4.078125 -2.226562 4.171875 -1.210938 4.359375 -0.828125 C 4.554688 -0.453125 5.09375 -0.265625 5.96875 -0.265625 L 6 0 L 0.5625 0 L 0.59375 -0.265625 C 1.488281 -0.265625 2.03125 -0.445312 2.21875 -0.8125 C 2.414062 -1.1875 2.515625 -2.207031 2.515625 -3.875 L 2.515625 -12.375 C 2.515625 -14.019531 2.425781 -15.015625 2.25 -15.359375 C 2.1875 -15.460938 2.070312 -15.5625 1.90625 -15.65625 C 1.75 -15.757812 1.578125 -15.816406 1.390625 -15.828125 C 1.203125 -15.847656 0.9375 -15.859375 0.59375 -15.859375 L 0.5625 -16.109375 C 1.664062 -16.285156 2.835938 -16.375 4.078125 -16.375 Z M 4.078125 -16.375 "/></g></g></g><g fill="#403f46" fill-opacity="1"><g transform="translate(30.269211, 60.187102)"><g><path d="M 11.5 -15.578125 L 11.5 -12.375 L 11.265625 -12.421875 C 11.265625 -13.398438 10.738281 -14.082031 9.6875 -14.46875 C 8.644531 -14.863281 7.054688 -15.0625 4.921875 -15.0625 L 4.921875 -8.046875 C 5.773438 -8.078125 6.441406 -8.125 6.921875 -8.1875 C 7.410156 -8.257812 7.78125 -8.398438 8.03125 -8.609375 C 8.28125 -8.828125 8.4375 -9.0625 8.5 -9.3125 C 8.5625 -9.570312 8.59375 -9.960938 8.59375 -10.484375 L 8.859375 -10.53125 L 8.859375 -5.125 L 8.59375 -5.15625 C 8.59375 -5.84375 8.519531 -6.332031 8.375 -6.625 C 8.238281 -6.925781 7.910156 -7.148438 7.390625 -7.296875 C 6.878906 -7.441406 6.054688 -7.53125 4.921875 -7.5625 L 4.921875 -5.03125 C 4.921875 -2.925781 5.015625 -1.691406 5.203125 -1.328125 C 5.296875 -1.140625 5.394531 -0.957031 5.5 -0.78125 C 5.613281 -0.613281 5.78125 -0.5 6 -0.4375 C 6.476562 -0.320312 7.0625 -0.265625 7.75 -0.265625 L 7.78125 0 L 1.109375 0 L 1.15625 -0.265625 C 1.894531 -0.265625 2.4375 -0.40625 2.78125 -0.6875 C 3.15625 -1 3.34375 -2.445312 3.34375 -5.03125 L 3.34375 -10.546875 C 3.34375 -12.128906 3.289062 -13.210938 3.1875 -13.796875 C 3.09375 -14.390625 2.957031 -14.757812 2.78125 -14.90625 C 2.4375 -15.1875 1.894531 -15.328125 1.15625 -15.328125 L 1.109375 -15.578125 Z M 11.5 -15.578125 "/></g></g></g><g fill="#403f46" fill-opacity="1"><g transform="translate(42.265173, 60.187102)"><g><path d="M 4.078125 -16.375 L 4.078125 -3.875 C 4.078125 -2.226562 4.171875 -1.210938 4.359375 -0.828125 C 4.554688 -0.453125 5.09375 -0.265625 5.96875 -0.265625 L 6 0 L 0.5625 0 L 0.59375 -0.265625 C 1.488281 -0.265625 2.03125 -0.445312 2.21875 -0.8125 C 2.414062 -1.1875 2.515625 -2.207031 2.515625 -3.875 L 2.515625 -12.375 C 2.515625 -14.019531 2.425781 -15.015625 2.25 -15.359375 C 2.1875 -15.460938 2.070312 -15.5625 1.90625 -15.65625 C 1.75 -15.757812 1.578125 -15.816406 1.390625 -15.828125 C 1.203125 -15.847656 0.9375 -15.859375 0.59375 -15.859375 L 0.5625 -16.109375 C 1.664062 -16.285156 2.835938 -16.375 4.078125 -16.375 Z M 4.078125 -16.375 "/></g></g></g><g fill="#403f46" fill-opacity="1"><g transform="translate(48.941964, 60.187102)"><g><path d="M 0.890625 -5.265625 C 0.890625 -6.816406 1.332031 -8.117188 2.21875 -9.171875 C 3.113281 -10.222656 4.320312 -10.75 5.84375 -10.75 C 7.375 -10.75 8.609375 -10.222656 9.546875 -9.171875 C 10.484375 -8.117188 10.953125 -6.8125 10.953125 -5.25 C 10.953125 -3.695312 10.5 -2.394531 9.59375 -1.34375 C 8.695312 -0.300781 7.484375 0.21875 5.953125 0.21875 C 4.429688 0.21875 3.207031 -0.304688 2.28125 -1.359375 C 1.351562 -2.410156 0.890625 -3.710938 0.890625 -5.265625 Z M 3.453125 -1.640625 C 4.046875 -0.691406 4.882812 -0.21875 5.96875 -0.21875 C 7.050781 -0.21875 7.867188 -0.6875 8.421875 -1.625 C 8.972656 -2.5625 9.25 -3.765625 9.25 -5.234375 C 9.25 -6.710938 8.953125 -7.925781 8.359375 -8.875 C 7.765625 -9.820312 6.929688 -10.296875 5.859375 -10.296875 C 4.785156 -10.296875 3.96875 -9.820312 3.40625 -8.875 C 2.851562 -7.9375 2.578125 -6.734375 2.578125 -5.265625 C 2.578125 -3.804688 2.867188 -2.597656 3.453125 -1.640625 Z M 3.453125 -1.640625 "/></g></g></g><g fill="#403f46" fill-opacity="1"><g transform="translate(60.782136, 60.187102)"><g><path d="M 7.75 -10.859375 C 8.113281 -10.859375 8.4375 -10.773438 8.71875 -10.609375 C 9 -10.453125 9.140625 -10.226562 9.140625 -9.9375 C 9.140625 -9.65625 9.050781 -9.429688 8.875 -9.265625 C 8.695312 -9.109375 8.492188 -9.03125 8.265625 -9.03125 C 8.046875 -9.03125 7.769531 -9.125 7.4375 -9.3125 C 7.101562 -9.507812 6.753906 -9.609375 6.390625 -9.609375 C 5.804688 -9.609375 5.332031 -9.070312 4.96875 -8 C 4.601562 -6.9375 4.421875 -5.703125 4.421875 -4.296875 C 4.421875 -2.398438 4.519531 -1.25 4.71875 -0.84375 C 4.78125 -0.707031 4.890625 -0.582031 5.046875 -0.46875 C 5.210938 -0.363281 5.382812 -0.300781 5.5625 -0.28125 C 5.738281 -0.269531 5.988281 -0.265625 6.3125 -0.265625 L 6.359375 0 L 0.953125 0 L 1 -0.265625 C 1.476562 -0.265625 1.820312 -0.289062 2.03125 -0.34375 C 2.25 -0.394531 2.429688 -0.578125 2.578125 -0.890625 C 2.722656 -1.203125 2.804688 -1.59375 2.828125 -2.0625 C 2.859375 -2.53125 2.875 -3.273438 2.875 -4.296875 L 2.875 -5.578125 C 2.875 -7.640625 2.816406 -8.8125 2.703125 -9.09375 C 2.585938 -9.375 2.484375 -9.597656 2.390625 -9.765625 C 2.304688 -9.929688 2.175781 -10.039062 2 -10.09375 C 1.675781 -10.1875 1.25 -10.234375 0.71875 -10.234375 L 0.671875 -10.484375 C 1.929688 -10.660156 3.179688 -10.75 4.421875 -10.75 L 4.421875 -7.46875 C 4.585938 -8.53125 4.957031 -9.359375 5.53125 -9.953125 C 6.101562 -10.554688 6.84375 -10.859375 7.75 -10.859375 Z M 7.75 -10.859375 "/></g></g></g><g fill="#403f46" fill-opacity="1"><g transform="translate(69.929335, 60.187102)"><g><path d="M 2.734375 -13.40625 C 2.484375 -13.664062 2.359375 -13.960938 2.359375 -14.296875 C 2.359375 -14.640625 2.484375 -14.9375 2.734375 -15.1875 C 2.984375 -15.445312 3.28125 -15.578125 3.625 -15.578125 C 3.96875 -15.578125 4.265625 -15.445312 4.515625 -15.1875 C 4.765625 -14.9375 4.890625 -14.640625 4.890625 -14.296875 C 4.890625 -13.960938 4.765625 -13.664062 4.515625 -13.40625 C 4.265625 -13.15625 3.96875 -13.03125 3.625 -13.03125 C 3.28125 -13.03125 2.984375 -13.15625 2.734375 -13.40625 Z M 4.46875 -10.75 L 4.46875 -3.671875 C 4.46875 -2.109375 4.5625 -1.148438 4.75 -0.796875 C 4.9375 -0.441406 5.46875 -0.265625 6.34375 -0.265625 L 6.390625 0 L 0.953125 0 L 1 -0.265625 C 1.894531 -0.265625 2.4375 -0.445312 2.625 -0.8125 C 2.820312 -1.175781 2.921875 -2.144531 2.921875 -3.71875 L 2.921875 -5.265625 C 2.921875 -6.992188 2.867188 -8.132812 2.765625 -8.6875 C 2.671875 -9.238281 2.535156 -9.597656 2.359375 -9.765625 C 2.003906 -10.085938 1.457031 -10.25 0.71875 -10.25 L 0.671875 -10.5 C 1.960938 -10.664062 3.226562 -10.75 4.46875 -10.75 Z M 4.46875 -10.75 "/></g></g></g><g fill="#403f46" fill-opacity="1"><g transform="translate(76.984475, 60.187102)"><g><path d="M 1.609375 -3.3125 C 1.609375 -2.351562 1.863281 -1.628906 2.375 -1.140625 C 2.894531 -0.660156 3.515625 -0.421875 4.234375 -0.421875 C 4.953125 -0.421875 5.535156 -0.582031 5.984375 -0.90625 C 6.429688 -1.238281 6.65625 -1.679688 6.65625 -2.234375 C 6.65625 -2.796875 6.460938 -3.253906 6.078125 -3.609375 C 5.703125 -3.960938 5.25 -4.25 4.71875 -4.46875 C 4.1875 -4.695312 3.648438 -4.925781 3.109375 -5.15625 C 2.566406 -5.394531 2.101562 -5.742188 1.71875 -6.203125 C 1.34375 -6.660156 1.15625 -7.273438 1.15625 -8.046875 C 1.15625 -8.828125 1.5 -9.472656 2.1875 -9.984375 C 2.875 -10.492188 3.671875 -10.75 4.578125 -10.75 C 5.867188 -10.75 6.878906 -10.539062 7.609375 -10.125 C 7.609375 -9.4375 7.519531 -8.488281 7.34375 -7.28125 L 7.078125 -7.34375 C 7.078125 -8.320312 6.851562 -9.03125 6.40625 -9.46875 C 5.957031 -9.914062 5.414062 -10.140625 4.78125 -10.140625 C 4.15625 -10.140625 3.65625 -9.976562 3.28125 -9.65625 C 2.90625 -9.332031 2.71875 -8.890625 2.71875 -8.328125 C 2.71875 -7.773438 2.90625 -7.332031 3.28125 -7 C 3.65625 -6.664062 4.109375 -6.382812 4.640625 -6.15625 C 5.179688 -5.9375 5.722656 -5.703125 6.265625 -5.453125 C 6.804688 -5.210938 7.265625 -4.863281 7.640625 -4.40625 C 8.015625 -3.957031 8.203125 -3.410156 8.203125 -2.765625 C 8.203125 -1.804688 7.832031 -1.066406 7.09375 -0.546875 C 6.351562 -0.0351562 5.378906 0.21875 4.171875 0.21875 C 2.960938 0.21875 1.941406 -0.0976562 1.109375 -0.734375 C 1.109375 -1.472656 1.179688 -2.347656 1.328125 -3.359375 Z M 1.609375 -3.3125 "/></g></g></g><g fill="#403f46" fill-opacity="1"><g transform="translate(86.131674, 60.187102)"><g><path d="M 3.921875 -10.53125 L 6.65625 -10.53125 L 6.65625 -10.03125 L 3.921875 -10.03125 L 3.921875 -1.5625 C 3.921875 -1.25 3.992188 -1 4.140625 -0.8125 C 4.285156 -0.625 4.476562 -0.53125 4.71875 -0.53125 C 5.25 -0.53125 5.878906 -0.6875 6.609375 -1 L 6.65625 -0.75 C 5.613281 -0.101562 4.691406 0.21875 3.890625 0.21875 C 3.367188 0.21875 2.984375 0.09375 2.734375 -0.15625 C 2.484375 -0.40625 2.359375 -0.84375 2.359375 -1.46875 L 2.359375 -10.03125 L 1.03125 -10.03125 L 1.03125 -10.53125 C 1.820312 -10.53125 2.378906 -10.753906 2.703125 -11.203125 C 3.023438 -11.648438 3.265625 -12.320312 3.421875 -13.21875 L 3.921875 -13.265625 Z M 3.921875 -10.53125 "/></g></g></g><g fill="#403f46" fill-opacity="1"><g transform="translate(93.235503, 60.187102)"><g><path d="M 0.75 -0.9375 C 0.75 -1.28125 0.863281 -1.566406 1.09375 -1.796875 C 1.332031 -2.023438 1.613281 -2.140625 1.9375 -2.140625 C 2.257812 -2.140625 2.53125 -2.023438 2.75 -1.796875 C 2.976562 -1.566406 3.09375 -1.28125 3.09375 -0.9375 C 3.09375 -0.601562 2.976562 -0.328125 2.75 -0.109375 C 2.519531 0.109375 2.242188 0.21875 1.921875 0.21875 C 1.609375 0.21875 1.332031 0.109375 1.09375 -0.109375 C 0.863281 -0.328125 0.75 -0.601562 0.75 -0.9375 Z M 0.75 -0.9375 "/></g></g></g><g clip-path="url(#75195615e2)"><path fill="#b8b6c1" d="M 25.589844 36.230469 C 25.066406 33.882812 20.535156 41.25 17.613281 45.769531 C 18.304688 41.699219 18.800781 37.683594 19.160156 34.007812 C 20.449219 32.023438 25.320312 24.308594 24.289062 22.359375 C 23.191406 20.289062 20.855469 28.148438 19.230469 33.292969 C 20.074219 24.285156 20.085938 17.496094 20.085938 17.355469 L 19.925781 17.355469 C 21.214844 17.273438 24.578125 16.515625 25.210938 10.902344 C 25.210938 10.902344 24.683594 9.714844 23.5 11.558594 C 22.972656 12.378906 22.46875 13.460938 21.914062 14.480469 C 22.011719 14.070312 22.082031 13.703125 22.128906 13.457031 C 22.296875 12.625 22.316406 11.777344 22.1875 10.941406 C 22.113281 10.476562 22.03125 9.128906 21.492188 8.933594 C 20.730469 8.65625 20.511719 9.847656 20.441406 10.339844 C 20.441406 10.355469 20.4375 10.367188 20.4375 10.382812 C 20.238281 11.886719 20.363281 13.902344 20.019531 15.5 C 19.925781 13.59375 19.714844 10.492188 19.273438 8.125 C 19.503906 7.976562 19.640625 7.710938 19.652344 7.441406 C 19.65625 7.21875 19.578125 6.996094 19.394531 6.835938 C 18.878906 6.382812 18.054688 6.761719 18.054688 7.441406 C 18.054688 7.835938 18.351562 8.171875 18.730469 8.234375 C 19.226562 10.890625 19.429688 14.5 19.5 16.234375 C 18.546875 14.699219 18.847656 12.363281 18.582031 10.382812 C 18.523438 9.929688 18.402344 8.984375 17.808594 8.898438 C 17.222656 8.8125 17.164062 9.503906 17.054688 9.914062 C 16.972656 10.214844 16.90625 10.515625 16.851562 10.820312 C 16.757812 11.34375 16.703125 11.878906 16.707031 12.414062 C 16.710938 12.792969 16.746094 13.167969 16.816406 13.535156 C 16.445312 12.824219 16.09375 12.128906 15.726562 11.558594 C 14.542969 9.714844 14.015625 10.902344 14.015625 10.902344 C 14.695312 16.894531 18.476562 17.355469 19.535156 17.363281 C 19.535156 17.582031 19.519531 23.082031 18.902344 30.699219 C 17.277344 25.550781 14.96875 17.835938 13.878906 19.894531 C 12.886719 21.769531 17.367188 28.992188 18.851562 31.296875 C 18.351562 37.253906 17.484375 44.417969 15.980469 51.335938 C 15.761719 48.707031 14.910156 46.042969 13.851562 43.628906 C 14.292969 41.835938 15.582031 36.144531 14.308594 35.523438 C 12.933594 34.855469 13.378906 39.753906 13.640625 43.15625 C 11.75 39 9.324219 35.691406 8.667969 34.828125 C 9.824219 34.019531 12.066406 31.703125 10 26.726562 C 10 26.726562 8.964844 25.945312 8.824219 28.132812 C 8.757812 29.109375 8.84375 30.296875 8.851562 31.457031 C 8.738281 31.050781 8.621094 30.695312 8.542969 30.457031 C 8.289062 29.648438 7.890625 28.898438 7.375 28.230469 C 7.085938 27.859375 6.359375 26.722656 5.796875 26.8125 C 4.992188 26.9375 5.378906 28.085938 5.558594 28.550781 C 5.5625 28.5625 5.566406 28.578125 5.574219 28.589844 C 6.128906 30 7.21875 31.703125 7.691406 33.269531 C 6.683594 31.648438 4.996094 29.039062 3.460938 27.179688 C 3.589844 26.9375 3.582031 26.640625 3.460938 26.398438 C 3.359375 26.203125 3.179688 26.046875 2.941406 25.992188 C 2.273438 25.847656 1.730469 26.578125 2.0625 27.175781 C 2.253906 27.519531 2.679688 27.667969 3.042969 27.539062 C 4.761719 29.621094 6.6875 32.679688 7.59375 34.164062 C 6.015625 33.28125 5.140625 31.09375 3.953125 29.488281 C 3.683594 29.125 3.117188 28.355469 2.554688 28.566406 C 2.003906 28.777344 2.285156 29.410156 2.390625 29.824219 C 2.464844 30.121094 2.550781 30.417969 2.648438 30.710938 C 2.820312 31.214844 3.035156 31.710938 3.296875 32.175781 C 3.480469 32.503906 3.695312 32.816406 3.933594 33.101562 C 3.269531 32.660156 2.621094 32.222656 2.027344 31.902344 C 0.09375 30.867188 0.210938 32.15625 0.210938 32.15625 C 3.738281 37.109375 7.300781 35.613281 8.191406 35.121094 C 8.953125 36.125 13.144531 41.855469 14.804688 47.988281 C 11.175781 44 5.65625 37.703125 5.527344 40.070312 C 5.410156 42.214844 12.699219 47 14.910156 48.398438 C 15.359375 50.179688 15.582031 51.984375 15.4375 53.714844 C 14.488281 57.636719 13.320312 61.425781 11.882812 64.796875 L 12.394531 65.015625 C 13.84375 61.605469 15.023438 57.785156 15.976562 53.824219 L 15.984375 53.824219 C 15.984375 53.8125 15.984375 53.800781 15.984375 53.792969 C 16.59375 51.269531 17.113281 48.691406 17.554688 46.128906 C 19.292969 44.582031 26.074219 38.386719 25.589844 36.230469 " fill-opacity="1" fill-rule="nonzero"/></g><g fill="#403f46" fill-opacity="1"><g transform="translate(73.15231, 17.190009)"><g><path d="M -0.390625 -3.65625 L 1.46875 -2.640625 L 1.40625 -2.515625 L -1.921875 -1.953125 L -0.515625 -1.171875 C -0.253906 -1.023438 -0.0625 -0.929688 0.0625 -0.890625 C 0.1875 -0.847656 0.28125 -0.84375 0.34375 -0.875 C 0.414062 -0.914062 0.488281 -1 0.5625 -1.125 L 0.609375 -1.109375 L 0.078125 -0.15625 L 0.046875 -0.1875 C 0.109375 -0.300781 0.132812 -0.394531 0.125 -0.46875 C 0.125 -0.539062 0.078125 -0.625 -0.015625 -0.71875 C -0.117188 -0.8125 -0.300781 -0.929688 -0.5625 -1.078125 L -1.515625 -1.609375 C -1.785156 -1.753906 -1.984375 -1.84375 -2.109375 -1.875 C -2.242188 -1.90625 -2.335938 -1.90625 -2.390625 -1.875 C -2.453125 -1.84375 -2.519531 -1.765625 -2.59375 -1.640625 L -2.65625 -1.65625 L -2.359375 -2.1875 L 1 -2.765625 L -0.4375 -3.5625 C -0.707031 -3.707031 -0.90625 -3.796875 -1.03125 -3.828125 C -1.164062 -3.867188 -1.265625 -3.867188 -1.328125 -3.828125 C -1.390625 -3.785156 -1.457031 -3.703125 -1.53125 -3.578125 L -1.578125 -3.609375 L -1.046875 -4.578125 L -1 -4.53125 C -1.070312 -4.40625 -1.109375 -4.304688 -1.109375 -4.234375 C -1.109375 -4.171875 -1.054688 -4.09375 -0.953125 -4 C -0.847656 -3.914062 -0.660156 -3.800781 -0.390625 -3.65625 Z M -0.390625 -3.65625 "/></g></g></g><g fill="#403f46" fill-opacity="1"><g transform="translate(75.582982, 13.329635)"><g><path d="M 0.4375 -2.28125 L 0.734375 -1.953125 C 0.941406 -1.703125 1.085938 -1.539062 1.171875 -1.46875 C 1.253906 -1.40625 1.328125 -1.40625 1.390625 -1.46875 C 1.429688 -1.5 1.472656 -1.554688 1.515625 -1.640625 L 1.546875 -1.625 C 1.546875 -1.582031 1.535156 -1.539062 1.515625 -1.5 C 1.503906 -1.46875 1.46875 -1.394531 1.40625 -1.28125 C 1.351562 -1.175781 1.28125 -1.085938 1.1875 -1.015625 C 1.082031 -1.085938 0.941406 -1.226562 0.765625 -1.4375 C 0.847656 -1.25 0.882812 -1.078125 0.875 -0.921875 C 0.875 -0.773438 0.800781 -0.640625 0.65625 -0.515625 C 0.507812 -0.390625 0.363281 -0.328125 0.21875 -0.328125 C 0.0820312 -0.328125 -0.046875 -0.394531 -0.171875 -0.53125 C -0.484375 -0.894531 -0.316406 -1.363281 0.328125 -1.9375 L 0.234375 -2.046875 C 0.0859375 -2.210938 -0.0390625 -2.316406 -0.15625 -2.359375 C -0.269531 -2.398438 -0.394531 -2.363281 -0.53125 -2.25 C -0.601562 -2.1875 -0.644531 -2.117188 -0.65625 -2.046875 C -0.664062 -1.972656 -0.664062 -1.910156 -0.65625 -1.859375 C -0.582031 -1.710938 -0.582031 -1.601562 -0.65625 -1.53125 C -0.738281 -1.46875 -0.816406 -1.476562 -0.890625 -1.5625 C -0.960938 -1.644531 -0.960938 -1.757812 -0.890625 -1.90625 C -0.828125 -2.0625 -0.71875 -2.207031 -0.5625 -2.34375 C -0.40625 -2.488281 -0.238281 -2.5625 -0.0625 -2.5625 C 0.113281 -2.5625 0.28125 -2.46875 0.4375 -2.28125 Z M 0.09375 -0.75 C 0.164062 -0.664062 0.25 -0.613281 0.34375 -0.59375 C 0.4375 -0.570312 0.53125 -0.597656 0.625 -0.671875 C 0.71875 -0.753906 0.765625 -0.875 0.765625 -1.03125 C 0.765625 -1.1875 0.726562 -1.332031 0.65625 -1.46875 C 0.59375 -1.601562 0.507812 -1.726562 0.40625 -1.84375 C 0.164062 -1.625 0.0234375 -1.421875 -0.015625 -1.234375 C -0.0546875 -1.046875 -0.0195312 -0.882812 0.09375 -0.75 Z M 0.09375 -0.75 "/></g></g></g><g fill="#403f46" fill-opacity="1"><g transform="translate(78.211194, 11.292922)"><g><path d="M -0.21875 -2.234375 L 0.265625 -2.46875 L 0.296875 -2.390625 L -0.1875 -2.15625 L 0.5625 -0.625 C 0.59375 -0.570312 0.628906 -0.535156 0.671875 -0.515625 C 0.710938 -0.492188 0.753906 -0.488281 0.796875 -0.5 C 0.898438 -0.550781 1 -0.640625 1.09375 -0.765625 L 1.125 -0.71875 C 0.988281 -0.507812 0.851562 -0.367188 0.71875 -0.296875 C 0.625 -0.253906 0.539062 -0.242188 0.46875 -0.265625 C 0.40625 -0.285156 0.347656 -0.351562 0.296875 -0.46875 L -0.46875 -2.015625 L -0.703125 -1.90625 L -0.734375 -1.984375 C -0.585938 -2.054688 -0.503906 -2.144531 -0.484375 -2.25 C -0.472656 -2.363281 -0.488281 -2.503906 -0.53125 -2.671875 L -0.46875 -2.734375 Z M -0.21875 -2.234375 "/></g></g></g><g fill="#403f46" fill-opacity="1"><g transform="translate(80.3779, 10.280312)"><g><path d="M 1.671875 -0.796875 C 1.703125 -0.910156 1.710938 -1.03125 1.703125 -1.15625 C 1.703125 -1.28125 1.691406 -1.410156 1.671875 -1.546875 C 1.648438 -1.679688 1.628906 -1.789062 1.609375 -1.875 C 1.585938 -1.96875 1.5625 -2.046875 1.53125 -2.109375 C 1.5 -2.179688 1.46875 -2.234375 1.4375 -2.265625 C 1.363281 -2.304688 1.25 -2.3125 1.09375 -2.28125 L 1.078125 -2.34375 C 1.316406 -2.414062 1.5625 -2.472656 1.8125 -2.515625 L 2.03125 -1.359375 C 2.082031 -1.035156 2.128906 -0.828125 2.171875 -0.734375 C 2.210938 -0.640625 2.273438 -0.601562 2.359375 -0.625 C 2.398438 -0.625 2.457031 -0.65625 2.53125 -0.71875 L 2.5625 -0.671875 C 2.539062 -0.648438 2.515625 -0.625 2.484375 -0.59375 C 2.453125 -0.5625 2.378906 -0.515625 2.265625 -0.453125 C 2.160156 -0.390625 2.050781 -0.347656 1.9375 -0.328125 C 1.875 -0.492188 1.820312 -0.6875 1.78125 -0.90625 C 1.726562 -0.476562 1.539062 -0.234375 1.21875 -0.171875 C 0.757812 -0.0859375 0.484375 -0.28125 0.390625 -0.75 L 0.328125 -1.171875 C 0.242188 -1.609375 0.175781 -1.867188 0.125 -1.953125 C 0.113281 -1.984375 0.0859375 -2.007812 0.046875 -2.03125 C 0.00390625 -2.050781 -0.0351562 -2.054688 -0.078125 -2.046875 C -0.128906 -2.046875 -0.191406 -2.039062 -0.265625 -2.03125 L -0.28125 -2.09375 C -0.0390625 -2.164062 0.195312 -2.226562 0.4375 -2.28125 L 0.703125 -0.859375 C 0.734375 -0.660156 0.789062 -0.515625 0.875 -0.421875 C 0.96875 -0.328125 1.082031 -0.289062 1.21875 -0.3125 C 1.351562 -0.34375 1.453125 -0.398438 1.515625 -0.484375 C 1.585938 -0.578125 1.640625 -0.679688 1.671875 -0.796875 Z M 1.671875 -0.796875 "/></g></g></g><g fill="#403f46" fill-opacity="1"><g transform="translate(84.045519, 9.82619)"><g><path d="M 1.78125 -1.984375 C 1.851562 -1.972656 1.914062 -1.945312 1.96875 -1.90625 C 2.019531 -1.875 2.039062 -1.828125 2.03125 -1.765625 C 2.03125 -1.710938 2.007812 -1.671875 1.96875 -1.640625 C 1.925781 -1.609375 1.882812 -1.59375 1.84375 -1.59375 C 1.800781 -1.601562 1.75 -1.628906 1.6875 -1.671875 C 1.625 -1.722656 1.554688 -1.753906 1.484375 -1.765625 C 1.378906 -1.773438 1.273438 -1.675781 1.171875 -1.46875 C 1.078125 -1.257812 1.015625 -1.019531 0.984375 -0.75 C 0.941406 -0.375 0.929688 -0.144531 0.953125 -0.0625 C 0.972656 -0.03125 0.992188 -0.00390625 1.015625 0.015625 C 1.046875 0.046875 1.078125 0.0664062 1.109375 0.078125 C 1.148438 0.0859375 1.195312 0.09375 1.25 0.09375 L 1.265625 0.140625 L 0.1875 0.015625 L 0.203125 -0.03125 C 0.296875 -0.0078125 0.363281 -0.00390625 0.40625 -0.015625 C 0.457031 -0.0234375 0.5 -0.0546875 0.53125 -0.109375 C 0.570312 -0.171875 0.597656 -0.25 0.609375 -0.34375 C 0.628906 -0.4375 0.648438 -0.585938 0.671875 -0.796875 L 0.703125 -1.0625 C 0.753906 -1.457031 0.769531 -1.679688 0.75 -1.734375 C 0.726562 -1.796875 0.710938 -1.84375 0.703125 -1.875 C 0.691406 -1.914062 0.671875 -1.941406 0.640625 -1.953125 C 0.566406 -1.984375 0.476562 -2.003906 0.375 -2.015625 L 0.375 -2.0625 C 0.632812 -2.070312 0.890625 -2.0625 1.140625 -2.03125 L 1.0625 -1.375 C 1.113281 -1.582031 1.203125 -1.738281 1.328125 -1.84375 C 1.453125 -1.957031 1.601562 -2.003906 1.78125 -1.984375 Z M 1.78125 -1.984375 "/></g></g></g><g fill="#403f46" fill-opacity="1"><g transform="translate(86.810007, 10.243248)"><g><path d="M 2.234375 -0.625 L 2.0625 -0.203125 C 1.9375 0.0859375 1.863281 0.285156 1.84375 0.390625 C 1.832031 0.492188 1.863281 0.5625 1.9375 0.59375 C 1.988281 0.613281 2.054688 0.617188 2.140625 0.609375 L 2.140625 0.671875 C 2.109375 0.679688 2.070312 0.6875 2.03125 0.6875 C 2 0.695312 1.921875 0.695312 1.796875 0.6875 C 1.671875 0.675781 1.550781 0.648438 1.4375 0.609375 C 1.457031 0.484375 1.519531 0.296875 1.625 0.046875 C 1.488281 0.191406 1.351562 0.296875 1.21875 0.359375 C 1.082031 0.429688 0.925781 0.429688 0.75 0.359375 C 0.570312 0.285156 0.453125 0.179688 0.390625 0.046875 C 0.328125 -0.0859375 0.332031 -0.238281 0.40625 -0.40625 C 0.582031 -0.84375 1.070312 -0.894531 1.875 -0.5625 L 1.9375 -0.703125 C 2.019531 -0.910156 2.050781 -1.070312 2.03125 -1.1875 C 2.019531 -1.3125 1.9375 -1.410156 1.78125 -1.484375 C 1.6875 -1.515625 1.601562 -1.519531 1.53125 -1.5 C 1.46875 -1.476562 1.414062 -1.445312 1.375 -1.40625 C 1.269531 -1.28125 1.171875 -1.234375 1.078125 -1.265625 C 0.984375 -1.304688 0.957031 -1.378906 1 -1.484375 C 1.039062 -1.585938 1.144531 -1.648438 1.3125 -1.671875 C 1.476562 -1.691406 1.660156 -1.660156 1.859375 -1.578125 C 2.054688 -1.492188 2.191406 -1.367188 2.265625 -1.203125 C 2.335938 -1.035156 2.328125 -0.84375 2.234375 -0.625 Z M 0.703125 -0.25 C 0.660156 -0.132812 0.648438 -0.0351562 0.671875 0.046875 C 0.691406 0.140625 0.757812 0.207031 0.875 0.25 C 0.988281 0.300781 1.113281 0.289062 1.25 0.21875 C 1.394531 0.144531 1.515625 0.0507812 1.609375 -0.0625 C 1.703125 -0.1875 1.773438 -0.320312 1.828125 -0.46875 C 1.523438 -0.59375 1.28125 -0.625 1.09375 -0.5625 C 0.90625 -0.507812 0.773438 -0.40625 0.703125 -0.25 Z M 0.703125 -0.25 "/></g></g></g><g fill="#403f46" fill-opacity="1"><g transform="translate(89.807586, 11.686194)"><g><path d="M 2.625 -2.125 L 1.109375 -0.140625 C 0.910156 0.128906 0.804688 0.304688 0.796875 0.390625 C 0.785156 0.484375 0.847656 0.582031 0.984375 0.6875 L 0.953125 0.71875 L 0.09375 0.0625 L 0.125 0.046875 C 0.269531 0.148438 0.378906 0.179688 0.453125 0.140625 C 0.535156 0.0976562 0.675781 -0.0546875 0.875 -0.328125 L 1.890625 -1.671875 C 2.097656 -1.941406 2.207031 -2.113281 2.21875 -2.1875 C 2.21875 -2.207031 2.207031 -2.234375 2.1875 -2.265625 C 2.175781 -2.304688 2.15625 -2.335938 2.125 -2.359375 C 2.09375 -2.390625 2.050781 -2.421875 2 -2.453125 L 2.03125 -2.5 C 2.238281 -2.394531 2.4375 -2.269531 2.625 -2.125 Z M 2.625 -2.125 "/></g></g></g><g fill="#403f46" fill-opacity="1"><g transform="translate(91.622795, 13.206137)"><g/></g></g><g fill="#403f46" fill-opacity="1"><g transform="translate(92.97728, 14.823284)"><g><path d="M 3.8125 0.640625 L 3.234375 0.9375 L 3.234375 0.875 C 3.410156 0.789062 3.484375 0.640625 3.453125 0.421875 C 3.429688 0.203125 3.320312 -0.0976562 3.125 -0.484375 L 1.875 0.140625 C 1.96875 0.296875 2.039062 0.410156 2.09375 0.484375 C 2.144531 0.566406 2.203125 0.617188 2.265625 0.640625 C 2.335938 0.671875 2.394531 0.679688 2.4375 0.671875 C 2.488281 0.660156 2.5625 0.628906 2.65625 0.578125 L 2.671875 0.625 L 1.71875 1.109375 L 1.703125 1.0625 C 1.816406 1 1.894531 0.941406 1.9375 0.890625 C 1.976562 0.847656 1.988281 0.773438 1.96875 0.671875 C 1.945312 0.566406 1.890625 0.40625 1.796875 0.1875 L 1.328125 0.421875 C 0.953125 0.609375 0.742188 0.738281 0.703125 0.8125 C 0.679688 0.84375 0.660156 0.875 0.640625 0.90625 C 0.617188 0.945312 0.613281 0.988281 0.625 1.03125 C 0.644531 1.132812 0.6875 1.242188 0.75 1.359375 L 0.703125 1.390625 L 0.09375 0.1875 L 0.15625 0.1875 C 0.21875 0.320312 0.289062 0.40625 0.375 0.4375 C 0.457031 0.46875 0.726562 0.367188 1.1875 0.140625 L 2.171875 -0.359375 C 2.460938 -0.503906 2.65625 -0.609375 2.75 -0.671875 C 2.851562 -0.742188 2.90625 -0.800781 2.90625 -0.84375 C 2.925781 -0.9375 2.90625 -1.050781 2.84375 -1.1875 L 2.875 -1.21875 Z M 3.8125 0.640625 "/></g></g></g><g fill="#403f46" fill-opacity="1"><g transform="translate(94.326823, 17.914957)"><g><path d="M 3.375 0.109375 L 0.9375 0.640625 C 0.613281 0.703125 0.414062 0.757812 0.34375 0.8125 C 0.28125 0.875 0.265625 0.984375 0.296875 1.140625 L 0.25 1.171875 L 0.015625 0.109375 L 0.078125 0.109375 C 0.109375 0.273438 0.164062 0.367188 0.25 0.390625 C 0.34375 0.410156 0.550781 0.390625 0.875 0.328125 L 2.515625 -0.03125 C 2.847656 -0.101562 3.046875 -0.160156 3.109375 -0.203125 C 3.128906 -0.222656 3.144531 -0.25 3.15625 -0.28125 C 3.164062 -0.3125 3.164062 -0.34375 3.15625 -0.375 C 3.15625 -0.414062 3.148438 -0.46875 3.140625 -0.53125 L 3.15625 -0.5625 C 3.25 -0.351562 3.320312 -0.128906 3.375 0.109375 Z M 3.375 0.109375 "/></g></g></g><g fill="#403f46" fill-opacity="1"><g transform="translate(94.753459, 20.198746)"><g><path d="M 1.03125 0.21875 C 1.34375 0.226562 1.601562 0.328125 1.8125 0.515625 C 2.019531 0.710938 2.113281 0.960938 2.09375 1.265625 C 2.082031 1.566406 1.96875 1.804688 1.75 1.984375 C 1.53125 2.160156 1.265625 2.242188 0.953125 2.234375 C 0.640625 2.222656 0.378906 2.125 0.171875 1.9375 C -0.0234375 1.75 -0.113281 1.5 -0.09375 1.1875 C -0.0820312 0.882812 0.03125 0.644531 0.25 0.46875 C 0.46875 0.289062 0.726562 0.207031 1.03125 0.21875 Z M 0.28125 0.703125 C 0.09375 0.816406 0 0.976562 0 1.1875 C -0.0078125 1.40625 0.0703125 1.578125 0.25 1.703125 C 0.4375 1.828125 0.675781 1.894531 0.96875 1.90625 C 1.257812 1.914062 1.503906 1.863281 1.703125 1.75 C 1.898438 1.644531 2.003906 1.484375 2.015625 1.265625 C 2.023438 1.046875 1.9375 0.875 1.75 0.75 C 1.5625 0.632812 1.316406 0.570312 1.015625 0.5625 C 0.722656 0.550781 0.476562 0.597656 0.28125 0.703125 Z M 0.28125 0.703125 "/></g></g></g><g fill="#403f46" fill-opacity="1"><g transform="translate(94.547248, 23.47375)"><g><path d="M 1.453125 1.375 C 1.316406 1.3125 1.054688 1.28125 0.671875 1.28125 L -0.234375 1.28125 L 0.96875 2.28125 C 1.164062 2.269531 1.296875 2.1875 1.359375 2.03125 L 1.4375 2.046875 L 1.03125 3 L 0.984375 2.953125 C 1.023438 2.859375 1.035156 2.789062 1.015625 2.75 C 0.992188 2.707031 0.945312 2.671875 0.875 2.640625 C 0.8125 2.609375 0.566406 2.582031 0.140625 2.5625 L -0.75 2.5 L 0.09375 3.21875 C 0.257812 3.363281 0.394531 3.460938 0.5 3.515625 C 0.644531 3.566406 0.757812 3.492188 0.84375 3.296875 L 0.90625 3.328125 L 0.578125 4.09375 L 0.53125 4.046875 C 0.570312 3.941406 0.566406 3.851562 0.515625 3.78125 C 0.460938 3.707031 0.269531 3.535156 -0.0625 3.265625 L -1.03125 2.421875 L -0.921875 2.171875 L 0.78125 2.25 L -0.515625 1.1875 L -0.40625 0.953125 L 1.1875 0.984375 C 1.457031 0.984375 1.632812 0.957031 1.71875 0.90625 C 1.8125 0.863281 1.882812 0.789062 1.9375 0.6875 L 2 0.71875 L 1.5625 1.734375 L 1.515625 1.6875 C 1.554688 1.59375 1.566406 1.519531 1.546875 1.46875 C 1.535156 1.425781 1.503906 1.394531 1.453125 1.375 Z M 1.453125 1.375 "/></g></g></g><g fill="#403f46" fill-opacity="1"><g transform="translate(92.587326, 27.469441)"><g><path d="M -0.5 2.21875 L 0.484375 1.125 L 0.4375 1.078125 C 0.195312 0.867188 -0.0234375 0.757812 -0.234375 0.75 C -0.453125 0.738281 -0.625 0.804688 -0.75 0.953125 C -0.945312 1.160156 -1.003906 1.398438 -0.921875 1.671875 L -1 1.6875 C -1.113281 1.375 -1.050781 1.085938 -0.8125 0.828125 C -0.625 0.628906 -0.394531 0.519531 -0.125 0.5 C 0.144531 0.488281 0.398438 0.59375 0.640625 0.8125 C 0.890625 1.03125 1.03125 1.273438 1.0625 1.546875 C 1.101562 1.828125 1.03125 2.066406 0.84375 2.265625 C 0.664062 2.472656 0.453125 2.566406 0.203125 2.546875 C -0.0351562 2.535156 -0.269531 2.425781 -0.5 2.21875 Z M 0.78125 2.21875 C 0.894531 2.09375 0.929688 1.941406 0.890625 1.765625 C 0.847656 1.597656 0.738281 1.421875 0.5625 1.234375 L -0.1875 2.0625 C 0.238281 2.40625 0.5625 2.457031 0.78125 2.21875 Z M 0.78125 2.21875 "/></g></g></g><g fill="#403f46" fill-opacity="1"><g transform="translate(90.344698, 29.703934)"><g><path d="M -0.15625 2.671875 C -0.21875 2.710938 -0.28125 2.734375 -0.34375 2.734375 C -0.40625 2.734375 -0.453125 2.707031 -0.484375 2.65625 C -0.515625 2.601562 -0.519531 2.554688 -0.5 2.515625 C -0.488281 2.472656 -0.460938 2.4375 -0.421875 2.40625 C -0.390625 2.382812 -0.332031 2.367188 -0.25 2.359375 C -0.175781 2.359375 -0.109375 2.34375 -0.046875 2.3125 C 0.046875 2.25 0.0664062 2.101562 0.015625 1.875 C -0.0351562 1.65625 -0.140625 1.429688 -0.296875 1.203125 C -0.492188 0.878906 -0.628906 0.691406 -0.703125 0.640625 C -0.734375 0.628906 -0.769531 0.617188 -0.8125 0.609375 C -0.851562 0.609375 -0.882812 0.617188 -0.90625 0.640625 C -0.9375 0.660156 -0.984375 0.6875 -1.046875 0.71875 L -1.078125 0.6875 L -0.15625 0.09375 L -0.140625 0.15625 C -0.222656 0.207031 -0.273438 0.242188 -0.296875 0.265625 C -0.328125 0.296875 -0.335938 0.34375 -0.328125 0.40625 C -0.328125 0.476562 -0.300781 0.554688 -0.25 0.640625 C -0.207031 0.734375 -0.132812 0.867188 -0.03125 1.046875 L 0.109375 1.265625 C 0.328125 1.609375 0.460938 1.796875 0.515625 1.828125 C 0.566406 1.859375 0.601562 1.878906 0.625 1.890625 C 0.65625 1.910156 0.691406 1.921875 0.734375 1.921875 C 0.804688 1.898438 0.882812 1.863281 0.96875 1.8125 L 0.984375 1.84375 C 0.804688 2.019531 0.613281 2.171875 0.40625 2.296875 L 0.046875 1.734375 C 0.128906 1.929688 0.15625 2.113281 0.125 2.28125 C 0.09375 2.445312 0 2.578125 -0.15625 2.671875 Z M -0.15625 2.671875 "/></g></g></g><g fill="#403f46" fill-opacity="1"><g transform="translate(87.90094, 31.096483)"><g><path d="M -0.109375 0.71875 C -0.171875 0.539062 -0.257812 0.421875 -0.375 0.359375 C -0.5 0.296875 -0.628906 0.285156 -0.765625 0.328125 C -0.910156 0.378906 -1.015625 0.445312 -1.078125 0.53125 C -1.148438 0.625 -1.164062 0.722656 -1.125 0.828125 C -1.09375 0.929688 -1.03125 1.003906 -0.9375 1.046875 C -0.851562 1.097656 -0.75 1.128906 -0.625 1.140625 C -0.507812 1.148438 -0.394531 1.160156 -0.28125 1.171875 C -0.164062 1.191406 -0.0546875 1.234375 0.046875 1.296875 C 0.148438 1.359375 0.222656 1.460938 0.265625 1.609375 C 0.316406 1.753906 0.289062 1.894531 0.1875 2.03125 C 0.09375 2.175781 -0.0390625 2.28125 -0.21875 2.34375 C -0.46875 2.414062 -0.671875 2.429688 -0.828125 2.390625 C -0.867188 2.265625 -0.914062 2.078125 -0.96875 1.828125 L -0.921875 1.84375 C -0.859375 2.03125 -0.769531 2.148438 -0.65625 2.203125 C -0.550781 2.253906 -0.4375 2.257812 -0.3125 2.21875 C -0.1875 2.1875 -0.0976562 2.128906 -0.046875 2.046875 C 0.00390625 1.960938 0.015625 1.863281 -0.015625 1.75 C -0.046875 1.644531 -0.109375 1.570312 -0.203125 1.53125 C -0.296875 1.488281 -0.398438 1.460938 -0.515625 1.453125 C -0.628906 1.441406 -0.742188 1.429688 -0.859375 1.421875 C -0.984375 1.410156 -1.09375 1.375 -1.1875 1.3125 C -1.28125 1.25 -1.347656 1.148438 -1.390625 1.015625 C -1.453125 0.835938 -1.425781 0.675781 -1.3125 0.53125 C -1.207031 0.382812 -1.039062 0.273438 -0.8125 0.203125 C -0.582031 0.128906 -0.363281 0.128906 -0.15625 0.203125 C -0.113281 0.347656 -0.078125 0.519531 -0.046875 0.71875 Z M -0.109375 0.71875 "/></g></g></g></svg>